<?xml version="1.0" standalone="no"?>
<!DOCTYPE svg PUBLIC "-//W3C//DTD SVG 20010904//EN"
 "http://www.w3.org/TR/2001/REC-SVG-20010904/DTD/svg10.dtd">
<svg version="1.0" xmlns="http://www.w3.org/2000/svg"
 width="400.000000pt" height="400.000000pt" viewBox="0 0 400.000000 400.000000"
 preserveAspectRatio="xMidYMid meet">
<metadata>
Created by potrace 1.11, written by Peter Selinger 2001-2013
</metadata>
<g transform="translate(0.000000,400.000000) scale(0.100000,-0.100000)"
fill="#000000" stroke="none">
<path d="M2550 3965 c-170 -49 -250 -80 -395 -150 -544 -263 -884 -712 -966
-1274 -7 -48 -9 -120 -6 -169 l6 -85 -35 34 c-66 63 -127 220 -119 306 l3 35
-31 -38 c-69 -82 -180 -253 -249 -381 -51 -97 -155 -358 -148 -375 1 -2 -4
-16 -10 -33 -25 -67 -41 -202 -39 -349 1 -135 4 -163 32 -266 17 -63 31 -129
31 -146 1 -29 3 -30 21 -19 11 7 46 19 79 25 48 10 60 10 68 -2 6 -9 8 0 4 27
-20 148 -28 285 -22 388 9 167 46 364 65 352 5 -3 27 2 49 9 22 8 42 13 44 10
3 -2 18 1 35 6 28 10 62 16 106 19 11 1 16 6 12 14 -4 6 7 -4 24 -24 28 -33
131 -119 143 -119 3 0 1 21 -3 48 -14 85 -11 128 9 129 45 2 99 12 123 21 15
6 29 9 31 6 3 -2 24 3 48 11 53 19 48 19 52 -7 2 -13 2 41 0 119 -10 347 75
587 287 806 70 73 218 194 226 185 2 -1 -7 -41 -21 -87 -49 -170 -27 -337 70
-536 48 -98 209 -355 223 -355 3 0 -2 12 -11 26 -13 18 -14 25 -4 23 7 -1 33
3 58 11 25 7 52 13 60 12 8 0 32 6 53 14 21 8 36 10 32 5 -3 -6 13 -3 37 5 39
14 59 18 121 23 10 0 15 6 12 11 -3 6 -3 10 0 10 11 0 121 -239 154 -334 35
-98 76 -255 87 -330 4 -32 9 -44 15 -35 7 11 9 11 9 -1 0 -8 15 20 34 62 18
42 50 99 69 126 40 54 173 184 208 202 20 11 21 11 15 -11 -12 -43 -18 -263
-8 -319 7 -40 10 -46 11 -23 1 34 5 36 76 50 50 9 45 8 80 16 17 4 41 9 55 12
71 13 79 17 75 33 -18 82 -57 155 -156 293 -103 143 -122 192 -123 311 -1 54
-4 98 -7 98 -17 0 -129 -82 -155 -114 -29 -35 -73 -113 -78 -139 -2 -7 -7 -30
-11 -52 -12 -54 -12 -53 -13 -113 -2 -54 -22 -67 -22 -15 0 43 -47 265 -80
378 -5 17 -13 46 -19 65 -15 55 -83 239 -156 425 -142 362 -175 495 -171 700
3 152 25 249 86 382 22 47 39 87 38 89 -2 1 -55 -13 -118 -31z"/>
<path d="M2912 1500 c0 -14 2 -19 5 -12 2 6 2 18 0 25 -3 6 -5 1 -5 -13z"/>
<path d="M398 1135 c5 -11 10 -22 9 -25 0 -3 8 -26 17 -52 16 -41 21 -46 37
-38 10 6 29 11 43 12 20 2 23 5 14 16 -6 7 -17 11 -24 8 -8 -3 -13 -1 -11 3 2
8 -16 27 -73 76 l-23 20 11 -20z"/>
<path d="M568 1017 c14 -6 26 -7 32 -1 5 5 -4 9 -23 10 -30 1 -30 1 -9 -9z"/>
</g>
</svg>
